<svg xmlns="http://www.w3.org/2000/svg" width="24" height="24">
  <path fill="#fff" d="M3.75 12a8.25 8.25 0 0 1 12.375-7.146.749.749 0 0 0 1.096-.844.745.745 0 0 0-.346-.455 9.752 9.752 0 0 0-14.541 7.17 9.753 9.753 0 0 0 5.934 10.281A9.747 9.747 0 0 0 21.75 12a.753.753 0 0 0-.75-.75.749.749 0 0 0-.75.75 8.251 8.251 0 1 1-16.5 0z"/>
  <path fill="#fff" d="M23.031 5.031a.757.757 0 0 0 .22-.531.746.746 0 0 0-.464-.694.746.746 0 0 0-.818.163L12 13.94 8.031 9.969a.757.757 0 0 0-.531-.22.742.742 0 0 0-.531.22.757.757 0 0 0-.22.531.742.742 0 0 0 .22.531l4.5 4.5a.753.753 0 0 0 .818.163.741.741 0 0 0 .244-.163l10.5-10.5z"/>
</svg>
